<svg width="17" height="17" viewBox="0 0 17 17" fill="none" xmlns="http://www.w3.org/2000/svg">
<path d="M10.916 6.04949L7.47015 9.49543L6.08393 8.10922C6.08392 8.10921 6.08392 8.1092 6.08391 8.1092C5.8161 7.84127 5.38177 7.84126 5.11395 8.10918C5.11395 8.10919 5.11394 8.10919 5.11394 8.1092C5.11393 8.1092 5.11392 8.10921 5.11392 8.10922C4.846 8.37704 4.84601 8.81136 5.11393 9.07917C5.11394 9.07918 5.11395 9.07918 5.11395 9.07919L6.98516 10.9505L6.98518 10.9505C7.25311 11.2183 7.6873 11.2183 7.95523 10.9505L7.95525 10.9505L11.886 7.0196C11.8861 7.01959 11.8861 7.01958 11.8861 7.01958C12.154 6.75174 12.154 6.31741 11.8861 6.04949C11.6182 5.78166 11.1839 5.78169 10.916 6.04947L10.916 6.04949ZM8.5 16.1C12.7003 16.1 16.1 12.7009 16.1 8.5C16.1 4.29973 12.7009 0.9 8.5 0.9C4.29973 0.9 0.9 4.29914 0.9 8.5C0.9 12.7003 4.29914 16.1 8.5 16.1ZM8.5 2.27188C11.9422 2.27188 14.7281 5.05735 14.7281 8.5C14.7281 11.9422 11.9427 14.7281 8.5 14.7281C5.0578 14.7281 2.27188 11.9427 2.27188 8.5C2.27188 5.0578 5.05735 2.27188 8.5 2.27188Z" fill="#999999" stroke="#999999" stroke-width="0.2"/>
</svg>
