<svg width="17" height="16" viewBox="0 0 17 16" fill="none" xmlns="http://www.w3.org/2000/svg">
<path d="M15.3474 5.98522L15.3474 5.98524C15.309 6.16412 15.2011 6.32049 15.0475 6.41989M15.3474 5.98522L14.7179 6.37869C14.6654 6.3831 14.6121 6.37986 14.5596 6.36859M15.3474 5.98522L16.0096 2.89524L16.0096 2.89519C16.0893 2.52267 15.852 2.15601 15.4794 2.07609C15.1067 1.99611 14.74 2.2336 14.6602 2.60613C14.6602 2.60613 14.6602 2.60613 14.6602 2.60613L14.3457 4.07398M15.3474 5.98522L14.3457 4.07398M15.0475 6.41989L14.966 6.29395L15.0475 6.41988C15.0475 6.41988 15.0475 6.41989 15.0475 6.41989ZM15.0475 6.41989C14.9514 6.48204 14.8424 6.51873 14.7306 6.52816L14.7305 6.52817C14.6634 6.53379 14.5952 6.52966 14.5281 6.51524M14.5281 6.51524L14.5282 6.51526L14.5596 6.36859M14.5281 6.51524L11.4382 5.85308M14.5281 6.51524L14.5596 6.36859M14.5596 6.36859L11.4382 5.85308M11.4382 5.85308L11.4696 5.70641L11.4382 5.85308L11.4382 5.85308ZM11.4382 5.85308C11.0656 5.77327 10.8283 5.40646 10.9081 5.03392C10.9081 5.03391 10.9081 5.0339 10.9081 5.0339L11.0548 5.06532C11.1172 4.77375 11.4042 4.58797 11.6958 4.65047L11.4382 5.85308ZM14.3457 4.07398C13.0344 2.08348 10.7982 0.85 8.35899 0.85C4.40577 0.85 1.18984 4.06588 1.18984 8.01914C1.18984 8.40015 1.49871 8.70908 1.87978 8.70908C2.26079 8.70908 2.56971 8.40016 2.56971 8.01914C2.56971 4.82705 5.16689 2.22987 8.35899 2.22987C10.3216 2.22987 12.1216 3.21848 13.1822 4.81562L14.3457 4.07398Z" fill="#999999" stroke="#999999" stroke-width="0.3"/>
<path d="M3.73942 11.4371C4.81633 12.9407 6.56145 13.8546 8.4452 13.8546C8.50938 13.8546 8.57349 13.8536 8.63796 13.8515M3.73942 11.4371L8.67854 15.0807C10.5524 15.0187 12.29 14.2308 13.5712 12.8621C14.8525 11.4933 15.524 9.70753 15.4621 7.83366L15.6121 7.82873C15.6121 7.82872 15.6121 7.82871 15.6121 7.82871C15.5995 7.44833 15.2808 7.14851 14.8995 7.16196M3.73942 11.4371L5.23201 11.8373L5.23203 11.8373C5.60004 11.9359 5.97841 11.7177 6.0771 11.3496C6.17579 10.9815 5.95742 10.6032 5.58944 10.5044L5.58939 10.5044L2.53708 9.68606L2.53702 9.68604C2.36036 9.63876 2.17202 9.66346 2.01357 9.75488M3.73942 11.4371L2.01357 9.75488M8.63796 13.8515L8.64286 14.0014L8.63791 13.8515C8.63793 13.8515 8.63794 13.8515 8.63796 13.8515ZM8.63796 13.8515C10.1837 13.8004 11.6164 13.1507 12.6733 12.0216C13.7303 10.8924 14.284 9.42008 14.2329 7.87425C14.2203 7.49349 14.5188 7.17464 14.8995 7.16196M14.8995 7.16196C14.8995 7.16196 14.8994 7.16196 14.8993 7.16196L14.9047 7.31187L14.8997 7.16195C14.8997 7.16195 14.8996 7.16195 14.8995 7.16196ZM2.01357 9.75488C2.01358 9.75487 2.01359 9.75487 2.01361 9.75486L2.08853 9.88481L2.01357 9.75488ZM5.55055 10.6493L2.49824 9.83094L5.55055 10.6493Z" fill="#999999" stroke="#999999" stroke-width="0.3"/>
</svg>
