<svg width="16" height="16" viewBox="0 0 16 16" fill="none" xmlns="http://www.w3.org/2000/svg">
<path d="M2.81787 2.26484L2.8177 2.26484C1.73139 2.26607 0.851088 3.14637 0.849858 4.23268V4.23285L0.849858 13.707L0.849858 13.7072C0.851088 14.7935 1.73139 15.6738 2.8177 15.6751H2.81787H13.0191H13.0192C14.1055 15.6738 14.9858 14.7935 14.9871 13.7072V13.707V10.4789C14.9871 10.1951 14.7571 9.96511 14.4733 9.96511C14.1895 9.96511 13.9595 10.1951 13.9595 10.4789V13.7067C13.9589 14.2261 13.5382 14.6469 13.0189 14.6474H2.81801C2.29877 14.6469 1.87805 14.2261 1.87739 13.7068V4.23293C1.87805 3.7138 2.29871 3.29303 2.81795 3.29237H6.04591C6.32967 3.29237 6.55967 3.06237 6.55967 2.7786C6.55967 2.49502 6.32971 2.26484 6.04591 2.26484L2.81787 2.26484Z" fill="#999999" stroke="#999999" stroke-width="0.300406"/>
<path d="M4.80202 11.1646C4.75242 11.3431 4.80287 11.5341 4.93361 11.6651L4.93377 11.6652C5.06472 11.796 5.25573 11.8464 5.43415 11.797L5.43419 11.797L8.51353 10.9439C8.599 10.9202 8.67689 10.8749 8.73969 10.8121L8.63348 10.7059L8.7397 10.8121L15.2257 4.32575L15.2258 4.32564C15.9223 3.62765 15.9223 2.49771 15.2258 1.79972L15.2257 1.79961L14.7991 1.37299C14.1015 0.6754 12.9705 0.6754 12.273 1.37299L5.78678 7.85916C5.72398 7.92197 5.67861 7.99985 5.65494 8.08533L4.80202 11.1646ZM4.80202 11.1646L4.94674 11.2048L4.80199 11.1647L4.80202 11.1646ZM14.2198 3.8786L12.7201 2.37889L12.9996 2.09953L12.9996 2.09951C13.2959 1.80327 13.7762 1.80327 14.0724 2.09951L14.0725 2.09953L14.4991 2.52598C14.7949 2.82265 14.7949 3.30269 14.4992 3.59924L14.2198 3.8786ZM14.2198 3.8786L14.4991 3.59937L14.2198 3.8786ZM6.89757 8.20169L11.9936 3.10553L13.4932 4.60512L8.39703 9.70127L6.89757 8.20169ZM6.03459 10.5644L6.41915 9.17631L7.42258 10.1798L6.03459 10.5644Z" fill="#999999" stroke="#999999" stroke-width="0.300406"/>
</svg>
