<svg width="20" height="20" viewBox="0 0 20 20" fill="none" xmlns="http://www.w3.org/2000/svg">
<path d="M11.0157 8.84198L15.5385 12.7873L15.5385 12.7873L16.5224 13.6454C16.5615 13.6659 16.5987 13.6924 16.6321 13.7257L16.6321 13.7258C16.6504 13.7441 16.6668 13.7635 16.6813 13.7839L18.3136 15.2076C18.3138 15.2078 18.3139 15.2079 18.3141 15.208C18.4832 15.3522 18.6318 15.5231 18.7562 15.7157C19.1857 16.3797 19.2145 17.2528 18.8288 17.9418L18.8288 17.9418C18.4785 18.5672 17.8797 18.9825 17.1857 19.0786C17.0822 19.0929 16.9787 19.1 16.8761 19.1C16.2937 19.1 15.7389 18.872 15.3194 18.4526L15.3193 18.4526C15.2773 18.4106 15.2368 18.3666 15.1989 18.3219C15.1988 18.3217 15.1986 18.3215 15.1984 18.3213L13.7447 16.651C13.739 16.6461 13.732 16.6399 13.725 16.6329C13.703 16.6109 13.6842 16.5873 13.6681 16.5631L8.8408 11.0168C8.6374 11.1789 8.38687 11.2672 8.12296 11.2672C7.81463 11.2672 7.52436 11.1469 7.30642 10.929L11.0157 8.84198ZM11.0157 8.84198C11.1781 8.63871 11.2665 8.38804 11.2665 8.12387C11.2665 7.81546 11.1462 7.52512 10.928 7.30696L10.928 7.30692C10.867 7.24604 10.8007 7.19347 10.7306 7.14915L11.0221 6.85761C11.1313 6.88226 11.2429 6.89485 11.3546 6.89485C11.74 6.89481 12.1258 6.74806 12.4195 6.4544C12.7039 6.16999 12.8608 5.79141 12.8608 5.38929C12.8608 4.98718 12.7039 4.6086 12.4195 4.32418L9.43656 1.34129C9.15213 1.05686 8.77352 0.9 8.3713 0.9C7.96925 0.9 7.59075 1.05687 7.30636 1.34129C7.30636 1.34129 7.30637 1.34129 7.30637 1.34129L11.0157 8.84198ZM4.39415 12.3496L4.32344 12.4203L1.34051 9.43733L1.41123 9.36662L4.39415 12.3496ZM4.39415 12.3496L4.32345 12.4203C4.6172 12.714 5.0031 12.8608 5.38855 12.8608C5.77404 12.8608 6.15995 12.714 6.4537 12.4203L6.45371 12.4203M4.39415 12.3496L6.45371 12.4203M6.45371 12.4203C6.8325 12.0415 6.96638 11.5098 6.85689 11.0229M6.45371 12.4203L6.85689 11.0229M10.8575 5.88655C11.1316 6.16066 11.5776 6.16066 11.8516 5.88655C11.9845 5.75369 12.0577 5.5771 12.0577 5.38933L10.8575 5.88655ZM10.8575 5.88655L7.87447 2.90348M10.8575 5.88655L7.87447 2.90348M7.87447 2.90348L7.8743 2.9033M7.87447 2.90348L7.8743 2.9033M7.8743 2.9033C7.60018 2.62922 7.60018 2.18326 7.8743 1.90918V2.9033ZM15.9578 17.8139L15.9578 17.8139C16.25 18.106 16.652 18.2408 17.062 18.184C17.4715 18.1274 17.8285 17.8797 18.0409 17.5006C18.2606 17.1079 18.2435 16.5858 17.9977 16.206L17.9976 16.2059C17.9199 16.0855 17.8288 15.9808 17.7268 15.8941C17.7268 15.8941 17.7268 15.8941 17.7268 15.8941C17.7268 15.8941 17.7268 15.8941 17.7268 15.8941L17.7224 15.8903L17.7212 15.8892L16.325 14.6714L14.6644 16.3321L15.8813 17.7304L15.8821 17.7313L15.8865 17.7364L15.9578 17.8139ZM15.9578 17.8139C15.9328 17.7889 15.9089 17.7629 15.8866 17.7365L15.8101 17.801C15.8342 17.8295 15.8601 17.8577 15.8871 17.8847L15.9578 17.8139ZM6.85689 11.0229L7.14798 10.7318C7.19295 10.8024 7.24591 10.8685 7.3064 10.929L6.85689 11.0229ZM7.945 1.9799L7.94501 1.97989C8.05914 1.86576 8.21027 1.80313 8.37134 1.80313C8.53269 1.80313 8.68391 1.86579 8.79798 1.97988L8.79799 1.97989L11.7809 4.96282C11.8951 5.07693 11.9577 5.22809 11.9577 5.38933C11.9577 5.55056 11.8951 5.70172 11.7809 5.81583L11.7809 5.81584C11.5459 6.0509 11.1632 6.0509 10.9283 5.81584L10.9283 5.81583L7.94518 2.83277L7.94513 2.83271L7.94506 2.83265L7.945 2.83259C7.70995 2.59756 7.70995 2.21492 7.945 1.9799ZM5.81511 11.7817L5.8151 11.7817C5.57999 12.0168 5.19714 12.0168 4.96205 11.7817L4.89134 11.8524L4.96205 11.7817L1.97912 8.79876C1.74399 8.56363 1.74398 8.18088 1.97912 7.9457L1.97913 7.9457C2.09295 7.83185 2.24405 7.7693 2.40545 7.7693C2.56683 7.7693 2.71783 7.83182 2.83162 7.94558L5.81506 10.929L5.81508 10.929C6.05016 11.164 6.05016 11.5467 5.81511 11.7817ZM9.29544 7.30677L9.29507 7.30714L7.308 9.29425C7.30788 9.29436 7.30777 9.29447 7.30766 9.29458C7.30278 9.29939 7.29811 9.30431 7.29471 9.30789L7.29435 9.30828L6.38296 10.2197L3.54113 7.37788L7.37708 3.54187L10.2189 6.3837L9.30535 7.29725L9.29544 7.30677ZM7.94499 10.2904L7.94495 10.2904C7.89726 10.2427 7.87118 10.1798 7.87118 10.1122C7.87118 10.0463 7.8961 9.98496 7.94121 9.93852C7.94135 9.93838 7.94148 9.93824 7.94161 9.93811L9.93669 7.94303C9.93684 7.94288 9.937 7.94272 9.93716 7.94257C10.0348 7.84815 10.1931 7.84933 10.2896 7.94571C10.3373 7.99339 10.3634 8.05633 10.3634 8.12387C10.3634 8.19133 10.3374 8.25398 10.2897 8.30159L10.2896 8.30168L10.0442 8.54706L10.0435 8.54781L10.0385 8.55284L10.0377 8.5536L8.55056 10.0408L8.55055 10.0408L8.55054 10.0408L8.55053 10.0408L8.55052 10.0408L8.55052 10.0408L8.55051 10.0408L8.5505 10.0408L8.55049 10.0408L8.55048 10.0408L8.55047 10.0409L8.55047 10.0409L8.55046 10.0409L8.55045 10.0409L8.55044 10.0409L8.55043 10.0409L8.55042 10.0409L8.55042 10.0409L8.55041 10.0409L8.5504 10.0409L8.55039 10.0409L8.55038 10.0409L8.55038 10.041L8.55037 10.041L8.55036 10.041L8.55035 10.041L8.55034 10.041L8.55033 10.041L8.55033 10.041L8.55032 10.041L8.55031 10.041L8.5503 10.041L8.55029 10.041L8.55029 10.041L8.55028 10.041L8.55027 10.0411L8.55026 10.0411L8.55025 10.0411L8.55025 10.0411L8.55024 10.0411L8.55023 10.0411L8.55022 10.0411L8.55021 10.0411L8.5502 10.0411L8.5502 10.0411L8.55019 10.0411L8.55018 10.0411L8.55017 10.0412L8.55016 10.0412L8.55016 10.0412L8.55015 10.0412L8.55014 10.0412L8.55013 10.0412L8.55012 10.0412L8.55012 10.0412L8.55011 10.0412L8.5501 10.0412L8.55009 10.0412L8.55008 10.0412L8.55008 10.0413L8.55007 10.0413L8.55006 10.0413L8.55005 10.0413L8.55004 10.0413L8.55003 10.0413L8.55003 10.0413L8.55002 10.0413L8.55001 10.0413L8.55 10.0413L8.54999 10.0413L8.54999 10.0413L8.54998 10.0413L8.54997 10.0414L8.54996 10.0414L8.54995 10.0414L8.54995 10.0414L8.54994 10.0414L8.54993 10.0414L8.54992 10.0414L8.54991 10.0414L8.54991 10.0414L8.5499 10.0414L8.54989 10.0414L8.54988 10.0414L8.54987 10.0415L8.54986 10.0415L8.54986 10.0415L8.54985 10.0415L8.54984 10.0415L8.54983 10.0415L8.54982 10.0415L8.54982 10.0415L8.54981 10.0415L8.5498 10.0415L8.54979 10.0415L8.54978 10.0415L8.54978 10.0416L8.54977 10.0416L8.54976 10.0416L8.54975 10.0416L8.54974 10.0416L8.54974 10.0416L8.54973 10.0416L8.54972 10.0416L8.54971 10.0416L8.5497 10.0416L8.5497 10.0416L8.54969 10.0416L8.54968 10.0416L8.54967 10.0417L8.54966 10.0417L8.54966 10.0417L8.54965 10.0417L8.54964 10.0417L8.54963 10.0417L8.54962 10.0417L8.54962 10.0417L8.54961 10.0417L8.5496 10.0417L8.54959 10.0417L8.54958 10.0417L8.54958 10.0418L8.54957 10.0418L8.54956 10.0418L8.54955 10.0418L8.54954 10.0418L8.54954 10.0418L8.54953 10.0418L8.54952 10.0418L8.54951 10.0418L8.5495 10.0418L8.54949 10.0418L8.54949 10.0418L8.54948 10.0418L8.54947 10.0419L8.54946 10.0419L8.54945 10.0419L8.54945 10.0419L8.54944 10.0419L8.54943 10.0419L8.54942 10.0419L8.54941 10.0419L8.54941 10.0419L8.5494 10.0419L8.54939 10.0419L8.54938 10.0419L8.54937 10.042L8.54937 10.042L8.54936 10.042L8.54935 10.042L8.54934 10.042L8.54933 10.042L8.54933 10.042L8.54932 10.042L8.54931 10.042L8.5493 10.042L8.54929 10.042L8.54929 10.042L8.54928 10.042L8.54927 10.0421L8.54926 10.0421L8.54925 10.0421L8.54925 10.0421L8.54924 10.0421L8.54923 10.0421L8.54922 10.0421L8.54921 10.0421L8.54921 10.0421L8.5492 10.0421L8.54919 10.0421L8.54918 10.0421L8.54917 10.0422L8.54917 10.0422L8.54916 10.0422L8.54915 10.0422L8.54914 10.0422L8.54913 10.0422L8.54912 10.0422L8.54912 10.0422L8.54911 10.0422L8.5491 10.0422L8.54909 10.0422L8.54908 10.0422L8.54908 10.0423L8.54907 10.0423L8.54906 10.0423L8.54905 10.0423L8.54904 10.0423L8.54904 10.0423L8.54903 10.0423L8.54902 10.0423L8.54901 10.0423L8.549 10.0423L8.549 10.0423L8.54899 10.0423L8.54898 10.0423L8.54897 10.0424L8.54896 10.0424L8.54895 10.0424L8.54895 10.0424L8.54894 10.0424L8.54893 10.0424L8.54892 10.0424L8.54891 10.0424L8.54891 10.0424L8.5489 10.0424L8.54889 10.0424L8.54888 10.0424L8.54887 10.0425L8.54887 10.0425L8.54886 10.0425L8.54885 10.0425L8.54884 10.0425L8.54883 10.0425L8.54883 10.0425L8.54882 10.0425L8.54881 10.0425L8.5488 10.0425L8.54879 10.0425L8.54878 10.0425L8.54878 10.0426L8.54877 10.0426L8.54876 10.0426L8.54875 10.0426L8.54874 10.0426L8.54874 10.0426L8.54873 10.0426L8.54872 10.0426L8.54871 10.0426L8.5487 10.0426L8.5487 10.0426L8.54869 10.0426L8.54868 10.0426L8.54867 10.0427L8.54866 10.0427L8.54865 10.0427L8.54865 10.0427L8.54864 10.0427L8.54863 10.0427L8.54862 10.0427L8.54861 10.0427L8.5486 10.0427L8.5486 10.0427L8.54859 10.0427L8.54858 10.0427L8.54857 10.0428L8.54856 10.0428L8.54856 10.0428L8.54855 10.0428L8.54854 10.0428L8.54853 10.0428L8.54852 10.0428L8.54851 10.0428L8.54851 10.0428L8.5485 10.0428L8.54849 10.0428L8.54848 10.0428L8.30093 10.2904C8.30092 10.2904 8.30092 10.2904 8.30091 10.2904C8.25326 10.338 8.19042 10.3641 8.12292 10.3641C8.05545 10.3641 7.99259 10.338 7.94499 10.2904ZM10.3603 8.37239L10.1142 8.61852L10.3603 8.37239ZM13.1447 14.5859L9.48598 10.3825L10.3814 9.48707L14.5807 13.1499L13.1447 14.5859ZM14.0701 15.6492L13.739 15.2688L15.2628 13.7449L15.6429 14.0764L14.0701 15.6492Z" fill="#999999" stroke="#999999" stroke-width="0.2"/>
</svg>
