<svg width="18" height="16" viewBox="0 0 18 16" fill="none" xmlns="http://www.w3.org/2000/svg">
<path d="M10.2254 0C5.98435 0 2.55741 3.43545 2.55741 7.67224H0L3.32036 10.9926L3.38002 11.1162L6.81979 7.67224H4.26237C4.26237 4.37745 6.93487 1.70496 10.2297 1.70496C13.5244 1.70496 16.1969 4.37745 16.1969 7.67224C16.1969 10.967 13.5244 13.6395 10.2297 13.6395C8.58013 13.6395 7.09255 12.9661 6.0142 11.8877L4.80794 13.094C6.19322 14.4835 8.10701 15.3445 10.2254 15.3445C14.4665 15.3445 17.9019 11.909 17.9019 7.67224C17.9019 3.43545 14.4665 0 10.2254 0Z" fill="#999999"/>
<path d="M9.37714 4.2627V8.52503L13.0257 10.6903L13.6395 9.65456L10.6558 7.88567V4.2627H9.37714Z" fill="#999999"/>
</svg>
