<svg width="16" height="16" viewBox="0 0 16 16" fill="none" xmlns="http://www.w3.org/2000/svg">
<path d="M6.59952 1.49984V1.49987V3.91924C11.5716 4.24532 15.0996 8.6104 15.0996 14.5C15.0996 14.7941 14.8865 15.0448 14.5962 15.0922M6.59952 1.49984L14.5801 14.9935M6.59952 1.49984C6.59941 1.16846 6.33072 0.899901 5.99934 0.9L6.59952 1.49984ZM14.5962 15.0922L14.5801 14.9935M14.5962 15.0922C14.5963 15.0922 14.5963 15.0921 14.5964 15.0921L14.5801 14.9935M14.5962 15.0922C14.5644 15.0974 14.532 15.1001 14.4996 15.1M14.5801 14.9935C14.5535 14.9979 14.5266 15.0001 14.4996 15M14.4996 15.1L14.4996 15M14.4996 15.1C14.4995 15.1 14.4994 15.1 14.4993 15.1L14.4996 15M14.4996 15.1C14.2416 15.0999 14.0125 14.9349 13.9308 14.6902L13.9307 14.6901C13.3809 13.0407 12.4987 11.8048 11.2707 10.9643C10.0634 10.1379 8.51375 9.6882 6.59952 9.61211V11.9999V12.0002C6.59913 12.1797 6.51838 12.3496 6.37944 12.4632L6.31612 12.3858L6.37943 12.4633C6.12294 12.6731 5.74494 12.6352 5.53512 12.3788L1.03508 6.87874L1.03497 6.8786C0.848183 6.64949 0.856096 6.31853 1.05357 6.09859L1.05364 6.0985L5.55366 1.09846L5.5537 1.09841C5.66744 0.972188 5.82936 0.900038 5.99933 0.9L14.4996 15M5.99951 8.39991C5.66812 8.39991 5.39949 8.66854 5.39949 8.99993V10.3198L2.28972 6.51849L5.39952 3.06344V4.49986C5.39952 4.83124 5.66815 5.09987 5.99953 5.09987C9.73155 5.09987 12.5655 7.58435 13.5367 11.4417C11.8899 9.41589 9.36056 8.39991 5.99951 8.39991Z" fill="#999999" stroke="#999999" stroke-width="0.2"/>
</svg>
